<svg width="31" height="24" viewBox="0 0 31 24" fill="none" xmlns="http://www.w3.org/2000/svg">
<path d="M27.04 5.99557C27.0596 6.25807 27.0596 6.51907 27.0596 6.78007C27.0596 14.7676 20.9674 23.9716 9.83375 23.9716C6.40361 23.9716 3.21699 22.9801 0.535416 21.2581C1.02243 21.3136 1.4914 21.3331 1.99796 21.3331C4.72311 21.3396 7.3711 20.4303 9.51508 18.7516C8.25159 18.7287 7.02677 18.3128 6.01166 17.5617C4.99654 16.8106 4.2418 15.7619 3.85281 14.5621C4.22709 14.6176 4.60287 14.6551 4.99669 14.6551C5.53932 14.6551 6.08495 14.5801 6.59151 14.4496C5.2203 14.1733 3.9873 13.4316 3.10218 12.3506C2.21706 11.2696 1.73445 9.91604 1.73641 8.52007V8.44507C2.54359 8.89357 3.48004 9.17407 4.4721 9.21157C3.64101 8.66044 2.95954 7.9126 2.48849 7.03475C2.01744 6.1569 1.77145 5.17635 1.77249 4.18057C1.77249 3.05857 2.07161 2.02957 2.5962 1.13257C4.11757 3.0001 6.01506 4.52791 8.16578 5.61705C10.3165 6.7062 12.6725 7.33239 15.0812 7.45507C14.988 7.00507 14.9308 6.53857 14.9308 6.07057C14.9304 5.27701 15.0868 4.49115 15.3909 3.75793C15.695 3.0247 16.141 2.35848 16.7033 1.79735C17.2656 1.23622 17.9332 0.791181 18.668 0.487682C19.4027 0.184183 20.1902 0.0281709 20.9854 0.0285652C22.7291 0.0285652 24.3028 0.757565 25.4091 1.93657C26.7646 1.67499 28.0645 1.1812 29.2511 0.477065C28.7993 1.87329 27.8528 3.05722 26.5891 3.80707C27.7913 3.67023 28.9662 3.35474 30.0748 2.87107C29.2468 4.07571 28.2208 5.13208 27.04 5.99557Z" fill="white" fill-opacity="0.78"/>
</svg>
