<svg width="28" height="28" viewBox="0 0 28 28" fill="none" xmlns="http://www.w3.org/2000/svg">
<path d="M14.4277 7.06543C12.5843 7.06543 10.8164 7.79619 9.51294 9.09694C8.20948 10.3977 7.4772 12.1619 7.4772 14.0014C7.4772 15.841 8.20948 17.6052 9.51294 18.9059C10.8164 20.2067 12.5843 20.9374 14.4277 20.9374C16.271 20.9374 18.0389 20.2067 19.3424 18.9059C20.6458 17.6052 21.3781 15.841 21.3781 14.0014C21.3781 12.1619 20.6458 10.3977 19.3424 9.09694C18.0389 7.79619 16.271 7.06543 14.4277 7.06543V7.06543ZM14.4277 18.5059C13.2301 18.5059 12.0816 18.0312 11.2348 17.1862C10.388 16.3411 9.91227 15.195 9.91227 13.9999C9.91227 12.8049 10.388 11.6587 11.2348 10.8137C12.0816 9.96867 13.2301 9.49393 14.4277 9.49393C15.6252 9.49393 16.7737 9.96867 17.6205 10.8137C18.4673 11.6587 18.943 12.8049 18.943 13.9999C18.943 15.195 18.4673 16.3411 17.6205 17.1862C16.7737 18.0312 15.6252 18.5059 14.4277 18.5059V18.5059Z" fill="white" fill-opacity="0.78"/>
<path d="M21.6532 8.42748C22.5481 8.42748 23.2735 7.70353 23.2735 6.81048C23.2735 5.91744 22.5481 5.19348 21.6532 5.19348C20.7583 5.19348 20.0328 5.91744 20.0328 6.81048C20.0328 7.70353 20.7583 8.42748 21.6532 8.42748Z" fill="white" fill-opacity="0.78"/>
<path d="M27.2553 5.16645C26.9074 4.26972 26.3756 3.45537 25.6941 2.77553C25.0126 2.0957 24.1963 1.56535 23.2976 1.21845C22.2459 0.824482 21.1349 0.611458 20.0118 0.588446C18.5643 0.525446 18.1058 0.507446 14.4352 0.507446C10.7645 0.507446 10.2941 0.507446 8.85857 0.588446C7.73632 0.610281 6.62607 0.823349 5.57575 1.21845C4.67679 1.56495 3.86033 2.09515 3.17877 2.77504C2.49721 3.45493 1.96559 4.26948 1.61802 5.16645C1.22316 6.21587 1.01018 7.3247 0.988212 8.44545C0.923578 9.88845 0.904037 10.3459 0.904037 14.0104C0.904037 17.6734 0.904037 18.1399 0.988212 19.5754C1.01076 20.6974 1.2227 21.8044 1.61802 22.8559C1.96656 23.7526 2.4987 24.5668 3.18042 25.2466C3.86215 25.9264 4.67848 26.4568 5.57725 26.8039C6.62558 27.2137 7.7363 27.442 8.86158 27.4789C10.3091 27.5419 10.7675 27.5614 14.4382 27.5614C18.1088 27.5614 18.5793 27.5614 20.0148 27.4789C21.1378 27.4562 22.2488 27.2437 23.3006 26.8505C24.1991 26.5027 25.0151 25.9719 25.6965 25.2919C26.378 24.6119 26.9099 23.7976 27.2583 22.9009C27.6536 21.8509 27.8656 20.744 27.8881 19.622C27.9528 18.1789 27.9723 17.7214 27.9723 14.0569C27.9723 10.3924 27.9723 9.92745 27.8881 8.49195C27.8706 7.35536 27.6566 6.23032 27.2553 5.16645ZM25.4245 19.4644C25.4148 20.3289 25.2567 21.1853 24.957 21.9964C24.7313 22.5798 24.3857 23.1094 23.9425 23.5515C23.4993 23.9935 22.9683 24.338 22.3837 24.5629C21.5799 24.8606 20.7308 25.0184 19.8735 25.0294C18.4455 25.0954 18.0427 25.1119 14.3811 25.1119C10.7164 25.1119 10.3422 25.1119 8.88713 25.0294C8.03024 25.019 7.18158 24.8612 6.37842 24.5629C5.79173 24.3394 5.25859 23.9955 4.8135 23.5534C4.36841 23.1113 4.02127 22.5809 3.79455 21.9964C3.4991 21.194 3.34107 20.3477 3.32707 19.4929C3.26244 18.0679 3.24741 17.6659 3.24741 14.0119C3.24741 10.3564 3.24741 9.98295 3.32707 8.52945C3.33679 7.66548 3.49491 6.80958 3.79455 5.99895C4.253 4.81545 5.19245 3.88395 6.37842 3.43095C7.18197 3.13416 8.03039 2.97639 8.88713 2.96445C10.3166 2.89995 10.7179 2.88195 14.3811 2.88195C18.0442 2.88195 18.42 2.88195 19.8735 2.96445C20.7309 2.97474 21.5801 3.13255 22.3837 3.43095C22.9683 3.65636 23.4992 4.00125 23.9424 4.44349C24.3856 4.88573 24.7312 5.41555 24.957 5.99895C25.2525 6.80137 25.4105 7.64769 25.4245 8.50245C25.4891 9.92895 25.5057 10.3294 25.5057 13.9849C25.5057 17.6389 25.5057 18.0319 25.441 19.466H25.4245V19.4644Z" fill="white" fill-opacity="0.78"/>
</svg>
